<mxfile host="app.diagrams.net" agent="Mozilla/5.0 (Windows NT 10.0; Win64; x64) AppleWebKit/537.36 (KHTML, like Gecko) Chrome/129.0.0.0 Safari/537.36 Edg/129.0.0.0" version="24.7.17">
  <diagram name="Page-1" id="uh2Nt5NAZ1hEic4aWEry">
    <mxGraphModel dx="1833" dy="605" grid="1" gridSize="10" guides="1" tooltips="1" connect="1" arrows="1" fold="1" page="1" pageScale="1" pageWidth="850" pageHeight="1100" math="0" shadow="0">
      <root>
        <mxCell id="0" />
        <mxCell id="1" parent="0" />
        <mxCell id="UstajCVp14i0uRyYP5gG-19" value="" style="edgeStyle=orthogonalEdgeStyle;rounded=0;orthogonalLoop=1;jettySize=auto;html=1;exitX=0.25;exitY=1;exitDx=0;exitDy=0;entryX=0.5;entryY=0;entryDx=0;entryDy=0;" edge="1" parent="1" source="UstajCVp14i0uRyYP5gG-3" target="UstajCVp14i0uRyYP5gG-18">
          <mxGeometry relative="1" as="geometry" />
        </mxCell>
        <mxCell id="UstajCVp14i0uRyYP5gG-20" style="edgeStyle=orthogonalEdgeStyle;rounded=0;orthogonalLoop=1;jettySize=auto;html=1;exitX=0.5;exitY=1;exitDx=0;exitDy=0;entryX=0.5;entryY=0;entryDx=0;entryDy=0;" edge="1" parent="1" source="UstajCVp14i0uRyYP5gG-3" target="UstajCVp14i0uRyYP5gG-16">
          <mxGeometry relative="1" as="geometry" />
        </mxCell>
        <mxCell id="UstajCVp14i0uRyYP5gG-21" style="edgeStyle=orthogonalEdgeStyle;rounded=0;orthogonalLoop=1;jettySize=auto;html=1;exitX=0.75;exitY=1;exitDx=0;exitDy=0;entryX=0.5;entryY=0;entryDx=0;entryDy=0;" edge="1" parent="1" source="UstajCVp14i0uRyYP5gG-3" target="UstajCVp14i0uRyYP5gG-17">
          <mxGeometry relative="1" as="geometry" />
        </mxCell>
        <mxCell id="UstajCVp14i0uRyYP5gG-3" value="Codec" style="rounded=0;whiteSpace=wrap;html=1;fillColor=#dae8fc;strokeColor=#6c8ebf;" vertex="1" parent="1">
          <mxGeometry x="80" y="270" width="120" height="60" as="geometry" />
        </mxCell>
        <mxCell id="UstajCVp14i0uRyYP5gG-7" value="2x I2S&lt;div&gt;+ SPI&lt;/div&gt;" style="edgeStyle=orthogonalEdgeStyle;rounded=0;orthogonalLoop=1;jettySize=auto;html=1;exitX=0;exitY=0.5;exitDx=0;exitDy=0;entryX=1;entryY=0.5;entryDx=0;entryDy=0;startArrow=classic;startFill=1;" edge="1" parent="1" source="UstajCVp14i0uRyYP5gG-4" target="UstajCVp14i0uRyYP5gG-3">
          <mxGeometry relative="1" as="geometry" />
        </mxCell>
        <mxCell id="UstajCVp14i0uRyYP5gG-8" value="SPI" style="edgeStyle=orthogonalEdgeStyle;rounded=0;orthogonalLoop=1;jettySize=auto;html=1;exitX=0.25;exitY=1;exitDx=0;exitDy=0;entryX=0.5;entryY=0;entryDx=0;entryDy=0;startArrow=classic;startFill=1;" edge="1" parent="1" source="UstajCVp14i0uRyYP5gG-4" target="UstajCVp14i0uRyYP5gG-5">
          <mxGeometry relative="1" as="geometry" />
        </mxCell>
        <mxCell id="UstajCVp14i0uRyYP5gG-24" value="USB OTG host" style="edgeStyle=orthogonalEdgeStyle;rounded=0;orthogonalLoop=1;jettySize=auto;html=1;exitX=0.5;exitY=1;exitDx=0;exitDy=0;entryX=0.5;entryY=0;entryDx=0;entryDy=0;startArrow=classic;startFill=1;" edge="1" parent="1" source="UstajCVp14i0uRyYP5gG-4" target="UstajCVp14i0uRyYP5gG-23">
          <mxGeometry relative="1" as="geometry" />
        </mxCell>
        <mxCell id="UstajCVp14i0uRyYP5gG-4" value="MCU" style="rounded=0;whiteSpace=wrap;html=1;fillColor=#dae8fc;strokeColor=#6c8ebf;" vertex="1" parent="1">
          <mxGeometry x="320" y="270" width="120" height="60" as="geometry" />
        </mxCell>
        <mxCell id="UstajCVp14i0uRyYP5gG-5" value="Serial Flash" style="rounded=0;whiteSpace=wrap;html=1;fillColor=#dae8fc;strokeColor=#6c8ebf;" vertex="1" parent="1">
          <mxGeometry x="290" y="460" width="120" height="60" as="geometry" />
        </mxCell>
        <mxCell id="UstajCVp14i0uRyYP5gG-13" style="edgeStyle=orthogonalEdgeStyle;rounded=0;orthogonalLoop=1;jettySize=auto;html=1;exitX=0.5;exitY=1;exitDx=0;exitDy=0;entryX=0.75;entryY=0;entryDx=0;entryDy=0;" edge="1" parent="1" source="UstajCVp14i0uRyYP5gG-9" target="UstajCVp14i0uRyYP5gG-3">
          <mxGeometry relative="1" as="geometry" />
        </mxCell>
        <mxCell id="UstajCVp14i0uRyYP5gG-9" value="Combo input R" style="shape=parallelogram;perimeter=parallelogramPerimeter;whiteSpace=wrap;html=1;fixedSize=1;fillColor=#fff2cc;strokeColor=#d6b656;" vertex="1" parent="1">
          <mxGeometry x="160" y="150" width="120" height="60" as="geometry" />
        </mxCell>
        <mxCell id="UstajCVp14i0uRyYP5gG-14" style="edgeStyle=orthogonalEdgeStyle;rounded=0;orthogonalLoop=1;jettySize=auto;html=1;exitX=0.5;exitY=1;exitDx=0;exitDy=0;entryX=0.25;entryY=0;entryDx=0;entryDy=0;" edge="1" parent="1" source="UstajCVp14i0uRyYP5gG-10" target="UstajCVp14i0uRyYP5gG-3">
          <mxGeometry relative="1" as="geometry" />
        </mxCell>
        <mxCell id="UstajCVp14i0uRyYP5gG-10" value="Combo input L" style="shape=parallelogram;perimeter=parallelogramPerimeter;whiteSpace=wrap;html=1;fixedSize=1;fillColor=#fff2cc;strokeColor=#d6b656;" vertex="1" parent="1">
          <mxGeometry y="150" width="120" height="60" as="geometry" />
        </mxCell>
        <mxCell id="UstajCVp14i0uRyYP5gG-16" value="Combo output L" style="shape=parallelogram;perimeter=parallelogramPerimeter;whiteSpace=wrap;html=1;fixedSize=1;fillColor=#fff2cc;strokeColor=#d6b656;" vertex="1" parent="1">
          <mxGeometry x="-50" y="440" width="120" height="60" as="geometry" />
        </mxCell>
        <mxCell id="UstajCVp14i0uRyYP5gG-17" value="Combo output R" style="shape=parallelogram;perimeter=parallelogramPerimeter;whiteSpace=wrap;html=1;fixedSize=1;fillColor=#fff2cc;strokeColor=#d6b656;" vertex="1" parent="1">
          <mxGeometry x="110" y="440" width="120" height="60" as="geometry" />
        </mxCell>
        <mxCell id="UstajCVp14i0uRyYP5gG-18" value="Stereo headphone output" style="shape=parallelogram;perimeter=parallelogramPerimeter;whiteSpace=wrap;html=1;fixedSize=1;fillColor=#fff2cc;strokeColor=#d6b656;" vertex="1" parent="1">
          <mxGeometry x="-180" y="370" width="120" height="60" as="geometry" />
        </mxCell>
        <mxCell id="UstajCVp14i0uRyYP5gG-23" value="USB socket" style="shape=parallelogram;perimeter=parallelogramPerimeter;whiteSpace=wrap;html=1;fixedSize=1;fillColor=#fff2cc;strokeColor=#d6b656;" vertex="1" parent="1">
          <mxGeometry x="450" y="460" width="120" height="60" as="geometry" />
        </mxCell>
        <mxCell id="UstajCVp14i0uRyYP5gG-25" value="" style="shape=parallelogram;perimeter=parallelogramPerimeter;whiteSpace=wrap;html=1;fixedSize=1;" vertex="1" parent="1">
          <mxGeometry x="600" y="340" width="120" height="60" as="geometry" />
        </mxCell>
        <mxCell id="UstajCVp14i0uRyYP5gG-26" value="IC" style="rounded=0;whiteSpace=wrap;html=1;fillColor=#dae8fc;strokeColor=#6c8ebf;" vertex="1" parent="1">
          <mxGeometry x="-160" y="80" width="80" height="40" as="geometry" />
        </mxCell>
        <mxCell id="UstajCVp14i0uRyYP5gG-27" value="physical connector" style="rounded=0;whiteSpace=wrap;html=1;fillColor=#fff2cc;strokeColor=#d6b656;" vertex="1" parent="1">
          <mxGeometry x="-160" y="120" width="80" height="40" as="geometry" />
        </mxCell>
      </root>
    </mxGraphModel>
  </diagram>
</mxfile>
